<svg width="300" height="450" xmlns="http://www.w3.org/2000/svg">
  <rect width="300" height="450" fill="#8e44ad"/>
  <text x="150" y="80" font-family="Arial" font-size="24" fill="white" text-anchor="middle">Killers of the</text>
  <text x="150" y="110" font-family="Arial" font-size="24" fill="white" text-anchor="middle">Flower Moon</text>
  <rect x="75" y="160" width="150" height="200" fill="#9b59b6"/>
  <circle cx="150" cy="220" r="30" fill="#f1c40f"/>
  <path d="M150,220 L160,190 L170,220 L150,220 Z" fill="#e67e22" />
  <path d="M150,220 L140,190 L130,220 L150,220 Z" fill="#e67e22" />
  <path d="M150,220 L180,210 L170,240 L150,220 Z" fill="#e67e22" />
  <path d="M150,220 L120,210 L130,240 L150,220 Z" fill="#e67e22" />
  <path d="M150,220 L170,250 L150,260 L150,220 Z" fill="#e67e22" />
  <path d="M150,220 L130,250 L150,260 L150,220 Z" fill="#e67e22" />
  <text x="150" y="400" font-family="Arial" font-size="18" fill="white" text-anchor="middle">Crime, Drama (2023)</text>
  <text x="150" y="425" font-family="Arial" font-size="16" fill="#f1c40f" text-anchor="middle">★★★★☆ 7.7/10</text>
</svg>